<svg width="16" height="16" viewBox="0 0 16 16" fill="none" xmlns="http://www.w3.org/2000/svg">
<path fill-rule="evenodd" clip-rule="evenodd" d="M9.92487 6.66667C9.6589 6.66667 9.39292 6.46667 9.32642 6.2L7.99653 2.6L6.66664 6.2C6.64543 6.25316 6.61745 6.30294 6.58405 6.34851C6.47601 6.5473 6.26861 6.66666 6.00169 6.66666H2.67696L5.33675 8.59999C5.60273 8.79999 5.66922 9.06666 5.53623 9.33333L4.00685 13.4667L7.53107 10.8667C7.6493 10.7778 7.80695 10.7415 7.96314 10.7522C8.11942 10.7415 8.27719 10.7777 8.3955 10.8666L11.9197 13.4666L10.5323 9.54642L10.5233 9.53334C10.3444 9.2942 10.3795 8.89421 10.5804 8.66995C10.6442 8.59287 10.724 8.52854 10.8151 8.48458L13.3161 6.66668H11.9871C11.9868 6.66668 11.9865 6.66668 11.9862 6.66668L9.99138 6.66668C9.98981 6.66668 9.98824 6.66667 9.98667 6.66667H9.92487ZM11.9862 5.33334H15.3109C15.5769 5.33334 15.8429 5.53334 15.9759 5.80001C16.0424 6.06668 15.9759 6.40001 15.7099 6.53334L11.8939 9.34297L13.981 15.0666C14.114 15.3333 13.981 15.6666 13.7816 15.8C13.5821 15.9333 13.4491 16 13.3161 16C13.1831 16 13.0501 15.9333 12.9171 15.8666L7.9633 12.2037L3.00943 15.8667C2.94294 15.9333 2.80995 16 2.67696 16C2.54397 16 2.41098 15.9333 2.27799 15.8667C2.01201 15.6667 1.94552 15.4 2.07851 15.1333L4.13984 9.39999L0.283154 6.53333C0.0836698 6.33333 -0.0493195 6.06666 0.0171752 5.79999C0.150164 5.53332 0.416143 5.33332 0.682122 5.33332H5.57197L7.33158 0.466667C7.46457 0.2 7.73055 0 7.99653 0C8.26251 0 8.52849 0.2 8.59498 0.466667L10.3546 5.33334H11.9862Z" fill="#FFE600"/>
</svg>
