<svg width="18" height="18" viewBox="0 0 18 18" fill="none" xmlns="http://www.w3.org/2000/svg">
<path fill-rule="evenodd" clip-rule="evenodd" d="M16.5617 14.4416L11.1201 8.99995L16.5617 3.55828C17.1492 2.97078 17.1492 2.02495 16.5617 1.43745C15.9742 0.849951 15.0284 0.849951 14.4409 1.43745L8.99922 6.87912L3.55755 1.43745C2.97005 0.849951 2.02422 0.849951 1.43672 1.43745C0.849219 2.02495 0.849219 2.97078 1.43672 3.55828L6.87839 8.99995L1.43672 14.4416C0.849219 15.0291 0.849219 15.975 1.43672 16.5625C2.02422 17.15 2.97005 17.15 3.55755 16.5625L8.99922 11.1208L14.4409 16.5625C15.0284 17.15 15.9742 17.15 16.5617 16.5625C17.1451 15.975 17.1451 15.025 16.5617 14.4416Z" fill="#E9E9EA"/>
</svg>
